<?xml version="1.0" encoding="utf-8"?>
<!-- Generator: Adobe Illustrator 24.1.1, SVG Export Plug-In . SVG Version: 6.00 Build 0)  -->
<svg version="1.1" id="Layer_1" xmlns="http://www.w3.org/2000/svg" xmlns:xlink="http://www.w3.org/1999/xlink" x="0px" y="0px"
	 viewBox="0 0 512 512" style="enable-background:new 0 0 512 512;" xml:space="preserve">
<g>
	<path d="M222.2,97.5v24.4c40.4,0.1,73.1,32.8,73.1,73.1c-0.1,40.4-32.8,73.1-73.1,73.1c-40.4-0.1-73.1-32.8-73.1-73.1
		c0.1-40.4,32.8-73.1,73.1-73.1V97.5V73.1c-67.3,0-121.9,54.6-121.9,121.9c0,67.3,54.6,121.9,121.9,121.9
		c67.3,0,121.9-54.6,121.9-121.9c0-67.3-54.6-121.9-121.9-121.9V97.5z"/>
	<path d="M78.2,359.7c41.5,36.1,93,53.9,144.1,53.9c61.4,0,122.6-25.7,166-75.7l0,0c36.1-41.5,53.9-93,53.9-144.1
		c0-61.4-25.7-122.6-75.7-166l0,0c-10.7-9.3-22.3-17.6-34.6-24.6c-11.7-6.7-26.6-2.7-33.3,9c-6.7,11.7-2.7,26.6,9,33.3
		c9.6,5.5,18.6,11.9,26.9,19.2l0,0c39,33.9,58.9,81.3,58.9,129.2c0,39.8-13.7,79.6-41.9,112.1l0,0c-33.9,39-81.3,58.8-129.2,58.9
		c-39.8,0-79.6-13.7-112.1-41.9c-10.2-8.8-25.6-7.7-34.4,2.4S68.1,350.9,78.2,359.7L78.2,359.7z"/>
	<path d="M197.8,390.1v97.5c0,13.5,10.9,24.4,24.4,24.4s24.4-10.9,24.4-24.4v-97.5c0-13.5-10.9-24.4-24.4-24.4
		S197.8,376.6,197.8,390.1"/>
	<path d="M124.7,512h195c13.5,0,24.4-10.9,24.4-24.4c0-13.5-10.9-24.4-24.4-24.4h-195c-13.5,0-24.4,10.9-24.4,24.4
		C100.3,501.1,111.2,512,124.7,512"/>
</g>
</svg>
